<?xml version="1.0" encoding="UTF-8" standalone="no"?>
<!-- Created with Inkscape (http://www.inkscape.org/) -->

<svg
   width="168mm"
   height="112mm"
   viewBox="0 0 168 112"
   version="1.1"
   id="svg1"
   xml:space="preserve"
   xmlns="http://www.w3.org/2000/svg"
   xmlns:svg="http://www.w3.org/2000/svg"><defs
     id="defs1" /><g
     id="layer1"><path
       style="fill:#999999"
       d="m 124.45297,108.98858 c -1.19634,-0.46228 -1.49541,-1.40051 -1.71457,-5.37884 -0.92585,-16.806446 -1.1503,-29.107446 -0.57409,-31.462386 0.30293,-1.23807 0.3955,-5.71104 0.48328,-23.3523 0.0597,-12.0015 0.20195,-21.96846 0.31607,-22.14881 0.11413,-0.18035 0.22357,-4.85228 0.2432,-10.38208 0.0479,-13.4808998 0.37232,-13.9625198 5.99299,-8.8954096 0.76409,0.68884 4.24676,3.7032396 7.73926,6.6986696 3.4925,2.99542 8.55023,7.54833 11.2394,10.11757 l 4.88939,4.67135 0.33613,-0.45968 c 0.24507,-0.33516 0.34957,-2.11233 0.38576,-6.56067 0.16376,-20.1259198 0.0164,-18.8147498 2.03559,-18.1108498 1.84602,0.6435302 3.26243,7.5355098 2.38729,11.6161398 -0.21619,1.00808 -0.21105,1.54267 0.0202,2.10095 0.24399,0.58905 0.23583,0.86786 -0.0383,1.30673 -0.27936,0.44732 -0.28336,0.66209 -0.0202,1.08349 0.38908,0.62301 0.40393,3.04341 0.03,4.89838 -0.35274,1.75012 -0.45699,7.8463 -0.14148,8.27319 0.16654,0.22532 0.0918,0.5084 -0.22726,0.86097 -0.36296,0.40107 -0.41554,0.6658 -0.22235,1.11952 0.30001,0.7046 0.29875,16.8524 -0.001,17.33797 -0.11201,0.18123 -0.066,0.99238 0.10216,1.80255 0.16819,0.81018 0.21752,1.79073 0.10963,2.17901 -0.10789,0.38828 -0.22565,9.39752 -0.26168,20.02054 l -0.0655,19.314587 0.40724,0.45805 0.40724,0.45806 -0.35133,0.42332 c -0.26645,0.32106 -0.27968,0.53805 -0.0548,0.8982 0.2284,0.36572 0.20348,0.60775 -0.10841,1.053043 l -0.40498,0.57818 0.39742,0.44682 c 0.50428,0.566976 0.91352,5.443396 0.49876,5.943146 -0.15286,0.18419 -0.31588,0.86834 -0.36227,1.52033 l -0.0843,1.18543 -0.67592,0.0787 c -1.29545,0.1509 -2.8938,-1.76354 -3.27902,-3.92749 -0.0895,-0.50256 -0.20112,-16.726876 -0.24813,-36.054036 l -0.0855,-35.1403 -1.16302,-1.2031 c -1.6775,-1.73531 -9.49685,-8.58597 -14.16469,-12.40992 -2.57771,-2.11168 -4.945,-4.34462 -6.64014,-6.26329 -1.44887,-1.63992 -3.07379,-3.21835 -3.61095,-3.50763 l -0.97664,-0.5259597 -0.25052,0.3962897 c -0.13778,0.21796 -0.25234,1.41381 -0.25457,2.65744 -0.002,1.24363 -0.11948,4.69645 -0.26056,7.67292 -0.32251,6.8042 -0.7621,53.12987 -0.55223,58.19614 0.0332,0.80036 0.0571,1.69333 0.0533,1.98438 -0.004,0.29104 0.054,1.63101 0.12845,2.9777 0.10413,1.88258 0.0416,2.63657 -0.27037,3.26201 l -0.40581,0.81346 0.32086,1.89737 c 0.44109,2.60838 0.31474,18.957586 -0.14991,19.398036 -0.20612,0.19538 -0.53282,0.22508 -0.90288,0.0821 z m -24.40178,-0.75158 -0.543746,-0.76362 -0.31849,-10.223989 c -0.24844,-7.975367 -0.24837,-10.417927 3.6e-4,-11.105767 l 0.31885,-0.88176 -0.56489,-2.35197 -0.564894,-2.35197 0.21743,-4.63021 c 0.11958,-2.54662 0.2326,-6.35661 0.251154,-8.46667 0.0203,-2.31186 0.16781,-4.2391 0.37113,-4.84967 l 0.33739,-1.01321 -0.44829,-2.48975 c -0.554664,-3.08052 -0.587164,-4.14326 -0.296734,-9.70178 0.166514,-3.18671 0.148364,-4.52841 -0.0647,-4.78517 -0.22054,-0.26574 -0.19204,-0.72245 0.111674,-1.78934 0.52425,-1.84164 0.89387,-5.46556 1.05014,-10.29608 0.0683,-2.11005 0.263666,-6.09865 0.434236,-8.86354 0.65925,-10.68639 0.0689,-14.3519097 -1.7464,-10.84313 -0.65217,1.26059 -2.39169,3.64836 -4.16686,5.71968 -0.70287,0.82012 -1.27794,1.57658 -1.27794,1.68102 0,0.10443 -0.77391,1.11775 -1.71979,2.2518 -0.94589,1.13406 -1.71979,2.15008 -1.71979,2.25782 0,0.10775 -0.77391,1.06061 -1.7198,2.11747 -0.94588,1.05686 -1.719786,1.99594 -1.719786,2.08685 0,0.37216 -4.671816,5.50843 -5.444906,5.98623 -2.49211,1.54021 -1.56491,-2.28952 1.184166,-4.8911 0.45164,-0.42741 0.82116,-0.87569 0.82116,-0.99619 0,-0.1205 0.72739,-1.13443 1.61642,-2.25319 0.88903,-1.11875 1.68366,-2.21827 1.76584,-2.44339 0.0822,-0.22511 0.69424,-1.11181 1.360136,-1.97044 2.80407,-3.61567 3.45968,-4.53041 3.45968,-4.82714 0,-0.17231 1.22039,-1.74667 2.71198,-3.49858 3.70169,-4.3477397 6.106894,-7.3579996 6.31946,-7.9092296 0.25177,-0.6529 2.10461,-2.3544102 2.7864,-2.5588202 0.90972,-0.27276 1.01116,0.21677 1.03799,5.0090902 0.0165,2.9499496 0.14844,4.9076696 0.38332,5.6885396 0.46188,1.53556 0.41239,7.13879 -0.11452,12.96458 -0.41559,4.595 -0.73589,10.13079 -1.25362,21.66628 -0.33704,7.50955 -0.12019,48.775787 0.26174,49.808227 l 0.20094,0.543203 0.66858,-0.885423 c 0.36773,-0.48697 1.13476,-1.77723 1.70452,-2.86724 0.56975,-1.09 1.58522,-2.816407 2.25659,-3.836457 0.67138,-1.02004 1.58684,-2.54238 2.03438,-3.38297 0.44753,-0.84058 1.38741,-2.32886 2.08862,-3.30729 0.70121,-0.97842 1.43572,-2.09284 1.63226,-2.47648 1.29513,-2.5281 4.45158,-5.34457 5.72252,-5.10614 1.73746,0.32595 1.13928,2.66128 -1.55104,6.05534 -0.45576,0.57497 -0.94772,1.25297 -1.09324,1.50666 -0.14552,0.25369 -0.92963,1.33106 -1.74246,2.39417 -0.81283,1.0631 -1.81256,2.70682 -2.22163,3.65271 -0.40906,0.94588 -1.20254,2.27209 -1.76327,2.94713 -0.56074,0.675037 -1.01952,1.287847 -1.01952,1.361797 0,0.0739 -0.7739,1.26786 -1.71979,2.65313 -0.94588,1.385273 -1.71979,2.660979 -1.71979,2.834909 0,0.17393 -0.77391,1.43399 -1.71979,2.80013 -0.94589,1.36615 -1.71979,2.58626 -1.71979,2.71136 0,1.3532 -2.48135,2.86361 -3.15355,1.91958 z m -30.178504,-0.58999 c -0.945298,-0.37716 -1.573735,-1.0129 -2.192804,-2.21826 l -0.543554,-1.05833 -0.08862,-16.404166 c -0.04874,-9.02229 -0.152552,-17.2376 -0.230693,-18.25625 -0.320368,-4.17632 -0.45044,-7.87159 -0.398547,-11.32251 0.04203,-2.79525 -0.03395,-3.78625 -0.324563,-4.23334 -0.436816,-0.672 -0.833384,-7.7613 -0.447499,-7.99979 0.127931,-0.0791 0.179824,-2.2528 0.115319,-4.83052 -0.373869,-14.94029 -0.429988,-35.8080796 -0.09738,-36.2088496 1.035427,-1.2476202 2.116937,-1.0056202 2.930099,0.65563 l 0.603603,1.23313 -0.07893,8.2020796 c -0.04667,4.84978 0.02979,8.68513 0.187074,9.38395 0.184223,0.8185 0.179443,1.28617 -0.01555,1.52112 -0.199454,0.24032 -0.195606,0.55148 0.01319,1.06709 0.16211,0.40031 0.300601,1.26362 0.307759,1.91847 0.0072,0.65484 0.04078,5.5364 0.07472,10.84791 0.03394,5.31152 0.221822,11.91198 0.417518,14.6677 0.195697,2.75572 0.294707,5.91088 0.220023,7.01146 -0.07468,1.10058 0.03155,3.37027 0.236075,5.04376 0.288671,2.362 0.305174,3.36602 0.07376,4.48787 -0.319684,1.5498 -0.100413,7.06935 0.300237,7.55766 0.122551,0.14936 0.274055,3.36405 0.336677,7.14375 0.06262,3.7797 0.241863,7.49919 0.398313,8.26555 0.199194,0.975727 0.201479,1.631377 0.0076,2.187477 -0.152257,0.43676 -0.19486,1.11944 -0.09467,1.51705 l 0.182156,0.72293 0.832976,-1.05833 c 0.458137,-0.58208 1.506851,-1.77271 2.330476,-2.64583 0.823625,-0.873127 2.405912,-2.938227 3.516187,-4.589127 3.756216,-5.58517 6.926496,-8.57272 8.473096,-7.9847 1.636276,0.62211 1.200686,2.33143 -1.358,5.32901 -0.6385,0.74802 -1.34071,1.79114 -1.56046,2.31805 -0.46035,1.10377 -1.83307,2.62764 -2.657246,2.94984 -2.01355,0.78718 -8.403083,9.680896 -9.213766,12.824836 -0.22514,0.87313 -0.610386,1.73633 -0.856102,1.91823 -0.516141,0.3821 -0.52888,0.38242 -1.39851,0.0354 z m -38.485018,-0.96149 c 0.114665,-0.5457 0.226136,-1.41819 0.247715,-1.93887 0.04236,-1.02223 0.200406,-1.25837 11.14227,-16.648106 6.674168,-9.38722 11.002441,-15.62912 12.550511,-18.09937 l 1.145267,-1.82751 -1.322787,-1.2152 c -0.727534,-0.66837 -1.589816,-1.65627 -1.916183,-2.19534 -0.326367,-0.53908 -1.515827,-1.74329 -2.643246,-2.67602 -3.093212,-2.55908 -8.701525,-8.06774 -12.439894,-12.21885 -1.834725,-2.03729 -3.441345,-3.77996 -3.570266,-3.8726 -0.817786,-0.58763 -6.517977,-6.47627 -6.517977,-6.73347 0,-4.18986 4.162028,-1.81703 13.91894,7.93536 4.090157,4.08827 8.590645,8.48869 10.001085,9.77871 2.747271,2.51273 9.26213,10.22679 9.701562,11.48735 0.420773,1.20703 -0.04853,1.97493 -3.197535,5.23198 -1.599061,1.65394 -2.914019,3.16065 -2.922127,3.34824 -0.01473,0.34085 -0.667717,1.21562 -3.447101,4.61792 -0.812607,0.99472 -2.583389,3.3564 -3.93507,5.24818 -1.351682,1.89177 -3.139348,4.33255 -3.972593,5.42395 -1.757845,2.302477 -2.328598,3.191477 -4.786752,7.45582 -3.040529,5.274626 -5.51552,7.890016 -7.466466,7.890016 H 31.179187 Z M 34.72842,71.299964 c -1.697167,-0.7901 -6.399079,-5.3483 -7.807157,-7.56852 -0.516468,-0.81436 -2.254747,-2.9296 -3.86284,-4.70054 -1.608093,-1.77093 -3.750305,-4.31933 -4.760469,-5.6631 -2.104454,-2.79945 -3.569721,-4.27653 -7.32152,-7.38056 -6.3943884,-5.29036 -7.0709904,-6.96637 -3.9057754,-9.67496 0.811558,-0.69449 1.9080257,-1.81696 2.4365947,-2.49438 0.5285687,-0.67743 2.1234177,-2.65773 3.5441097,-4.40067 1.420692,-1.74293 3.000544,-3.96989 3.510783,-4.94879 1.198251,-2.29887 4.274056,-6.24697 8.298158,-10.6515 1.761526,-1.92806 3.202774,-3.60154 3.202774,-3.71884 0,-1.1071697 4.620669,-5.3433096 5.828348,-5.3433096 h 0.721869 l 0.276528,1.08943 c 0.366817,1.44515 0.311757,1.55423 -2.254677,4.4668196 -1.218147,1.38245 -2.473831,3.04932 -2.790408,3.70416 -0.340911,0.70518 -1.769048,2.37728 -3.502706,4.10105 -2.083179,2.07129 -3.219509,3.4444 -3.941268,4.7625 -0.557785,1.01864 -1.768335,2.65183 -2.69011,3.62931 -1.636599,1.7355 -3.553826,4.32743 -3.553826,4.80448 0,0.13133 -0.654843,0.98465 -1.455208,1.89628 -0.800364,0.91163 -1.455208,1.79104 -1.455208,1.95424 0,0.16321 -0.714375,1.06464 -1.5875,2.00319 -2.0512617,2.20495 -2.2435757,1.80521 3.439583,7.14954 1.236927,1.16318 3.542989,3.57249 5.124581,5.35402 1.581592,1.78153 2.957613,3.23915 3.057824,3.23915 0.100211,0 0.770713,0.80178 1.490003,1.78174 0.71929,0.97996 2.150877,2.61707 3.181304,3.63803 1.030426,1.02095 2.188233,2.35508 2.572903,2.96475 0.38467,0.60966 1.638467,1.86666 2.786216,2.79333 5.663016,4.57224 6.661505,9.65464 1.417094,7.21315 z"
       id="path1" /></g></svg>
